<svg width="342" height="316" viewBox="0 0 342 316" fill="none" xmlns="http://www.w3.org/2000/svg">
<path d="M339.364 89.4569L275.242 54.9667L275.351 54.9226C276.557 54.4369 277.528 53.4597 278.048 52.2124C278.567 50.9635 278.591 49.5473 278.114 48.2805L261.149 3.21281C260.313 0.99254 258.161 -0.26066 256.01 0.0517912C255.797 0.0220744 255.581 0 255.36 0H86.6388C86.4177 0 86.2015 0.0212254 85.9876 0.0517912C83.8373 -0.259811 81.687 0.991691 80.851 3.21281L63.884 48.2805C63.4065 49.5473 63.4306 50.9635 63.9499 52.2124C64.4692 53.4605 65.4402 54.4369 66.6468 54.9226L66.7553 54.9667L2.63565 89.4569C0.261858 90.7339 -0.682674 93.8007 0.526327 96.3079C1.37761 98.0748 3.07214 99.0911 4.82857 99.0911C5.56491 99.0911 6.31249 98.9128 7.01346 98.5358L78.8735 59.8828C78.8856 59.876 78.8968 59.8675 78.9089 59.8615L131.855 81.1872C132.42 81.4147 133 81.5234 133.572 81.5234C135.492 81.5234 137.304 80.305 138.055 78.3097L143.795 63.0667L150.262 78.2732C151.041 80.1029 152.763 81.2797 154.662 81.2797H155.287L131.614 285.009C131.395 286.889 132.182 288.741 133.657 289.819L168.257 315.096C169.082 315.699 170.041 316 171 316C171.946 316 172.891 315.707 173.709 315.12L208.965 289.843C210.461 288.771 211.263 286.904 211.043 285.009L187.36 81.1956C188.918 80.9078 190.269 79.8312 190.931 78.2732L197.828 62.058L203.946 78.3097C204.696 80.305 206.509 81.5234 208.429 81.5234C209 81.5234 209.581 81.4147 210.146 81.1872L263.092 59.8615C263.105 59.8683 263.115 59.8768 263.127 59.8828L334.988 98.5358C335.689 98.9128 336.437 99.0911 337.173 99.0911C338.929 99.0911 340.623 98.0748 341.475 96.3079C342.682 93.8007 341.737 90.7339 339.364 89.4569ZM189.742 26.5999C189.731 26.6042 189.722 26.6118 189.712 26.6161H152.288C152.278 26.6118 152.269 26.6042 152.258 26.5999L111.516 10.1886H230.483L189.742 26.5999ZM130.848 69.8769L74.6548 47.2438L88.0576 11.6439L144.25 34.2788L130.848 69.8769ZM171.025 304.73L141.543 283.191L164.321 87.1628L179.218 94.7669L201.109 283.16L171.025 304.73ZM183.41 71.0902H157.782L148.758 49.8775L153.68 36.8055H188.32L192.861 48.8689L183.41 71.0902ZM197.75 34.2788L253.942 11.6439L267.344 47.2438L211.151 69.8769L197.75 34.2788Z" fill="#D9D9D9"/>
</svg>
